<mxfile host="app.diagrams.net" agent="Mozilla/5.0 (Windows NT 10.0; Win64; x64) AppleWebKit/537.36 (KHTML, like Gecko) Chrome/136.0.0.0 Safari/537.36" version="27.0.5">
  <diagram name="第 1 页" id="t28L84DK9KnocP4gWBqY">
    <mxGraphModel dx="1426" dy="743" grid="1" gridSize="10" guides="1" tooltips="1" connect="1" arrows="1" fold="1" page="1" pageScale="1" pageWidth="827" pageHeight="1169" math="0" shadow="0">
      <root>
        <mxCell id="0" />
        <mxCell id="1" parent="0" />
        <mxCell id="rCgpgmv-2Kc-Fvn80EIz-1" value="&lt;font style=&quot;font-size: 24px;&quot;&gt;1 迁移可行性 POC&lt;/font&gt;" style="text;strokeColor=none;align=center;fillColor=none;html=1;verticalAlign=middle;whiteSpace=wrap;rounded=0;" vertex="1" parent="1">
          <mxGeometry y="20" width="240" height="30" as="geometry" />
        </mxCell>
        <mxCell id="rCgpgmv-2Kc-Fvn80EIz-2" value="" style="rounded=0;whiteSpace=wrap;html=1;" vertex="1" parent="1">
          <mxGeometry x="70" y="140" width="170" height="120" as="geometry" />
        </mxCell>
        <mxCell id="rCgpgmv-2Kc-Fvn80EIz-3" value="&lt;font style=&quot;font-size: 18px;&quot;&gt;1.1 迁移步骤&lt;/font&gt;" style="text;strokeColor=none;align=center;fillColor=none;html=1;verticalAlign=middle;whiteSpace=wrap;rounded=0;" vertex="1" parent="1">
          <mxGeometry x="30" y="70" width="130" height="30" as="geometry" />
        </mxCell>
        <mxCell id="rCgpgmv-2Kc-Fvn80EIz-4" value="&lt;font style=&quot;font-size: 14px;&quot;&gt;（1）数据文件迁移&lt;/font&gt;" style="text;strokeColor=none;align=center;fillColor=none;html=1;verticalAlign=middle;whiteSpace=wrap;rounded=0;" vertex="1" parent="1">
          <mxGeometry x="50" y="100" width="140" height="30" as="geometry" />
        </mxCell>
        <mxCell id="rCgpgmv-2Kc-Fvn80EIz-5" value="" style="rounded=0;whiteSpace=wrap;html=1;" vertex="1" parent="1">
          <mxGeometry x="360" y="140" width="170" height="120" as="geometry" />
        </mxCell>
        <mxCell id="rCgpgmv-2Kc-Fvn80EIz-6" value="OSS-HDFS" style="rounded=0;whiteSpace=wrap;html=1;fillColor=#dae8fc;strokeColor=#6c8ebf;" vertex="1" parent="1">
          <mxGeometry x="385" y="196" width="120" height="40" as="geometry" />
        </mxCell>
        <mxCell id="rCgpgmv-2Kc-Fvn80EIz-8" style="edgeStyle=orthogonalEdgeStyle;rounded=0;orthogonalLoop=1;jettySize=auto;html=1;entryX=0;entryY=0.5;entryDx=0;entryDy=0;" edge="1" parent="1" source="rCgpgmv-2Kc-Fvn80EIz-7" target="rCgpgmv-2Kc-Fvn80EIz-6">
          <mxGeometry relative="1" as="geometry" />
        </mxCell>
        <mxCell id="rCgpgmv-2Kc-Fvn80EIz-7" value="HDFS" style="rounded=0;whiteSpace=wrap;html=1;fillColor=#dae8fc;strokeColor=#6c8ebf;" vertex="1" parent="1">
          <mxGeometry x="95" y="196" width="120" height="40" as="geometry" />
        </mxCell>
        <mxCell id="rCgpgmv-2Kc-Fvn80EIz-9" value="数据文件迁移" style="text;strokeColor=none;align=center;fillColor=none;html=1;verticalAlign=middle;whiteSpace=wrap;rounded=0;" vertex="1" parent="1">
          <mxGeometry x="260" y="186" width="90" height="30" as="geometry" />
        </mxCell>
        <mxCell id="rCgpgmv-2Kc-Fvn80EIz-10" value="&lt;span style=&quot;font-size: 14px;&quot;&gt;EMR 4.8&lt;/span&gt;" style="text;strokeColor=none;align=center;fillColor=none;html=1;verticalAlign=middle;whiteSpace=wrap;rounded=0;" vertex="1" parent="1">
          <mxGeometry x="60" y="140" width="90" height="30" as="geometry" />
        </mxCell>
        <mxCell id="rCgpgmv-2Kc-Fvn80EIz-11" value="&lt;span style=&quot;font-size: 14px;&quot;&gt;EMR 5.12&lt;/span&gt;" style="text;strokeColor=none;align=center;fillColor=none;html=1;verticalAlign=middle;whiteSpace=wrap;rounded=0;" vertex="1" parent="1">
          <mxGeometry x="360" y="140" width="90" height="30" as="geometry" />
        </mxCell>
      </root>
    </mxGraphModel>
  </diagram>
</mxfile>
